:version 1.10
:name ASF
:units
  mass 1
  length 1
  angle deg
:documentation
  ASF file generated by Kaydara
:root
  axis xyz
  order  tx ty tz rx ry rz
  position 0 0 0
  orientation 0 0 0
:bonedata
  begin
    id 1
    name RightUpLegDummy
    direction -0.718183 -0.695806 0.00816078
    length 4.904
    axis 0 0 0 xyz
  end
  begin
    id 2
    name RightUpLeg
    direction 3.53373e-006 -0.995788 0.0916898
    length 17.4976
    axis -3.49089 -0.000906625 0.000286804 xyz
    dof rx ry rz
  end
  begin
    id 3
    name RightLeg
    direction 0.00371092 -0.995096 -0.0988419
    length 16.5821
    axis 3.68512 0.0193738 -0.131023 xyz
    dof rx ry rz
  end
  begin
    id 4
    name RightFoot
    direction 0.00079151 -0.46099 0.887405
    length 3.77069
    axis 4.81691e-005 -0.120479 -0.188788 xyz
    dof rx ry rz
  end
  begin
    id 5
    name RightToes
    direction 0.00124746 -0.014064 0.9999
    length 3.85082
    axis 0.000481921 0.542163 -0.142578 xyz
    dof rx ry rz
  end
  begin
    id 6
    name SpineDummy
    direction 8.3039e-015 1 4.57515e-016
    length 4.6813
    axis 0 0 0 xyz
  end
  begin
    id 7
    name Spine
    direction -3.15643e-008 0.999988 0.00495137
    length 10.1015
    axis -0.001389 0.000121418 2.40972e-006 xyz
    dof rx ry rz
  end
  begin
    id 8
    name Spine1
    direction 0 0 0
    length 0
    axis -0.001389 0.000121451 1.30017e-006 xyz
    dof rx ry rz
  end
  begin
    id 9
    name HEadDummy
    direction -1.99912e-008 0.999999 0.00127422
    length 3.43865
    axis -0.001389 0.000121451 1.30017e-006 xyz
  end
  begin
    id 10
    name HEad
    direction -0.0222688 0.980941 0.193023
    length 5.12695
    axis -0.001389 0.000121451 1.30017e-006 xyz
    dof rx ry rz
  end
  begin
    id 11
    name LeftShoulder1Dummy
    direction 0.998891 -0.0402509 -0.0244456
    length 3.5433
    axis -0.001389 0.000121451 1.30017e-006 xyz
  end
  begin
    id 12
    name LeftShoulder1
    direction 0.99951 -0.000327763 0.0313091
    length 4.05031
    axis -0.001389 0.000121451 1.30017e-006 xyz
    dof rx ry rz
  end
  begin
    id 13
    name LeftArm
    direction 0.998561 -0.00100056 -0.0536182
    length 10.3537
    axis -23.1894 0.134784 0.967509 xyz
    dof rx ry rz
  end
  begin
    id 14
    name LeftForeArm
    direction 0.998903 0.00866432 0.046012
    length 8.70632
    axis -9.91835 -0.06569 -0.177794 xyz
    dof rx ry rz
  end
  begin
    id 15
    name LeftHand
    direction 0.992938 -0.0411637 0.11126
    length 5.32135
    axis -0.00960232 -0.00340091 0.185173 xyz
    dof rx ry rz
  end
  begin
    id 16
    name RightShoulderDummy
    direction -0.998891 -0.0402509 -0.0244414
    length 3.5433
    axis -0.001389 0.000121451 1.30017e-006 xyz
  end
  begin
    id 17
    name RightShoulder
    direction -0.99951 -0.000327807 0.0313133
    length 4.05031
    axis 0.215806 0.000203643 -0.0068026 xyz
    dof rx ry rz
  end
  begin
    id 18
    name RightArm
    direction -0.998573 -0.000999564 -0.053403
    length 10.3947
    axis -23.2009 -0.134239 -0.964101 xyz
    dof rx ry rz
  end
  begin
    id 19
    name RightForeArm
    direction -0.998898 0.00868028 0.0461306
    length 8.68355
    axis -9.92322 0.0658061 0.178868 xyz
    dof rx ry rz
  end
  begin
    id 20
    name RightHand
    direction -0.992843 -0.0414603 0.112003
    length 5.28593
    axis -0.00960638 0.00330671 -0.185228 xyz
    dof rx ry rz
  end
  begin
    id 21
    name LeftUpLegDummy
    direction 0.718183 -0.695806 0.00816078
    length 4.904
    axis 0 0 0 xyz
  end
  begin
    id 22
    name LeftUpLeg
    direction -6.81752e-006 -0.995793 0.0916337
    length 17.4976
    axis -3.48766 0.00143442 -0.000524262 xyz
    dof rx ry rz
  end
  begin
    id 23
    name LeftLeg
    direction -0.00601358 -0.995091 -0.0987824
    length 16.5821
    axis 3.68178 -0.00654042 -0.000285133 xyz
    dof rx ry rz
  end
  begin
    id 24
    name LeftFoot
    direction -0.00417578 -0.460984 0.887399
    length 3.77069
    axis 1.87233e-006 4.66016e-005 -8.6538e-006 xyz
    dof rx ry rz
  end
  begin
    id 25
    name LeftToes
    direction 0.00818058 -0.00485161 0.999955
    length 3.85048
    axis 1.06247e-005 4.65869e-005 -8.65513e-006 xyz
    dof rx ry rz
  end
:hierarchy
  begin
    root RightUpLegDummy SpineDummy LeftUpLegDummy
    RightUpLegDummy RightUpLeg
    RightUpLeg RightLeg
    RightLeg RightFoot
    RightFoot RightToes
    SpineDummy Spine
    Spine Spine1
    Spine1 HEadDummy LeftShoulder1Dummy RightShoulderDummy
    HEadDummy HEad
    LeftShoulder1Dummy LeftShoulder1
    LeftShoulder1 LeftArm
    LeftArm LeftForeArm
    LeftForeArm LeftHand
    RightShoulderDummy RightShoulder
    RightShoulder RightArm
    RightArm RightForeArm
    RightForeArm RightHand
    LeftUpLegDummy LeftUpLeg
    LeftUpLeg LeftLeg
    LeftLeg LeftFoot
    LeftFoot LeftToes
  end

:SAMPLES-PER-SECOND 30
:FRAME-RANGE 1-663
:FULLY-SPECIFIED
:DEGREES
1
root  70.2724 40.1151 40.0735 0.503408 -48.5632 1.8434
RightUpLeg  5.11751 -4.60128 -1.5697
RightLeg  -1.8398 -14.6979 1.56965
RightFoot  -6.30361 -0.289494 5.60018
RightToes  2.91037e-010 0 -3.6325e-017
Spine  3.82294 0.158599 -0.410606
Spine1  -3.08069 0.345868 -1.11479
HEad  15.8893 1.16186 -3.54435
LeftShoulder1  1.4688 -0.344856 -32.1141
LeftArm  25.8792 5.0833 -35.7133
LeftForeArm  -0.134886 -10.487 -15.715
LeftHand  0.347525 -1.67078 -5.5718
RightShoulder  9.14214 12.1799 51.036
RightArm  25.8647 1.92967 18.4777
RightForeArm  14.9692 1.99392 18.1088
RightHand  0.473176 4.62145 5.14115
LeftUpLeg  -4.16341 4.7163 -0.798873
LeftLeg  -0.878601 5.0228 -2.60862
LeftFoot  2.38589 0.222799 -2.03617
LeftToes  -4.9116e-011 5.71383e-011 -3.31847e-011
2
root  70.2882 40.1083 40.1484 0.503408 -48.458 1.83292
RightUpLeg  5.094 -4.60605 -1.6434
RightLeg  -1.61887 -14.8693 1.47274
RightFoot  -6.49227 -0.28759 5.74294
RightToes  2.91037e-010 0 -3.6325e-017
Spine  3.72672 0.221196 -0.422202
Spine1  -3.05798 0.431015 -1.24647
HEad  15.9527 1.24705 -3.61869
LeftShoulder1  1.45825 -0.317427 -32.1115
LeftArm  25.7392 5.16851 -35.6249
LeftForeArm  -0.0926308 -10.3617 -15.7867
LeftHand  0.34759 -1.67144 -5.57561
RightShoulder  9.19162 12.248 51.089
RightArm  25.1491 1.87291 18.5507
RightForeArm  15.506 1.8516 18.0588
RightHand  0.474741 4.60012 5.21636
LeftUpLeg  -4.15518 4.85627 -0.806074
LeftLeg  -0.744331 4.79283 -2.77763
LeftFoot  2.20257 0.223766 -2.0512
LeftToes  -4.9116e-011 5.71383e-011 -3.31847e-011
3
root  70.3049 40.0984 40.2238 0.502241 -48.408 1.79029
RightUpLeg  4.98999 -4.74072 -1.78935
RightLeg  -1.16168 -14.7912 1.4494
RightFoot  -6.75136 -0.281005 5.85929
RightToes  2.91037e-010 0 -3.6325e-017
Spine  3.66135 0.27446 -0.387904
Spine1  -3.0364 0.509616 -1.40601
HEad  15.9185 1.35734 -3.73355
LeftShoulder1  1.45402 -0.298479 -32.1901
LeftArm  25.5412 5.27539 -35.4817
LeftForeArm  -0.0320304 -10.2899 -15.821
LeftHand  0.348601 -1.6693 -5.63348
RightShoulder  9.29598 12.4051 51.1565
RightArm  24.7254 1.7864 18.5954
RightForeArm  15.868 1.8568 18.0033
RightHand  0.474609 4.61404 5.20667
LeftUpLeg  -4.14517 5.02615 -0.78962
LeftLeg  -0.531897 4.57046 -2.92661
LeftFoot  1.96189 0.225119 -2.07224
LeftToes  -4.9116e-011 5.71383e-011 -3.31847e-011
4
root  70.3185 40.0865 40.2998 0.335496 -48.4148 1.86647
RightUpLeg  4.88323 -5.01484 -2.08638
RightLeg  -0.505891 -14.3948 1.4416
RightFoot  -7.16506 -0.265808 5.94686
RightToes  2.91037e-010 0 -3.6325e-017
Spine  3.65305 0.327087 -0.443144
Spine1  -2.95325 0.581103 -1.54544
HEad  15.8276 1.55565 -3.93509
LeftShoulder1  1.44793 -0.274883 -32.2674
LeftArm  25.6911 5.35037 -35.3512
LeftForeArm  -0.357253 -10.3663 -15.7987
LeftHand  0.349103 -1.57589 -5.65215
RightShoulder  9.33006 12.4324 51.2541
RightArm  25.0898 1.91697 18.6402
RightForeArm  15.5416 2.16492 17.9619
RightHand  0.490608 4.64274 5.37435
LeftUpLeg  -3.95228 5.18903 -0.843325
LeftLeg  -0.500245 4.4299 -3.09664
LeftFoot  1.78463 0.222032 -2.02425
LeftToes  -4.9116e-011 5.71383e-011 -3.31847e-011
5
root  70.3305 40.0706 40.3716 0.216862 -48.3202 1.96645
RightUpLeg  4.71125 -5.20266 -2.3289
RightLeg  0.152725 -14.315 1.36569
RightFoot  -7.54963 -0.252711 6.07627
RightToes  2.91037e-010 0 -3.6325e-017
Spine  3.62364 0.311578 -0.57026
Spine1  -2.96127 0.570767 -1.62729
HEad  15.7292 1.77819 -4.08726
LeftShoulder1  1.45318 -0.283333 -32.3206
LeftArm  25.6358 5.45145 -35.2774
LeftForeArm  -0.241573 -10.302 -15.8331
LeftHand  0.348715 -1.63487 -5.6361
RightShoulder  9.35222 12.4194 51.4147
RightArm  25.5813 2.06067 18.7244
RightForeArm  15.2083 2.42081 17.9379
RightHand  0.470636 4.62279 5.15563
LeftUpLeg  -3.93905 5.20074 -0.98333
LeftLeg  -0.297354 4.37215 -3.13383
LeftFoot  1.59039 0.222886 -2.05207
LeftToes  -4.9116e-011 5.71383e-011 -3.31847e-011
6
root  70.3377 40.0533 40.4431 -0.000710229 -48.1723 2.11314
RightUpLeg  4.53233 -5.35743 -2.56953
RightLeg  0.98003 -14.2464 1.18632
RightFoot  -7.98831 -0.236157 6.205
RightToes  2.91037e-010 0 -3.6325e-017
Spine  3.71895 0.292878 -0.721381
Spine1  -3.014 0.550446 -1.67556
HEad  15.6486 1.96282 -4.28728
LeftShoulder1  1.45655 -0.288552 -32.3567
LeftArm  25.8611 5.4783 -35.2527
LeftForeArm  -0.407932 -10.3296 -15.8377
LeftHand  0.350012 -1.63744 -5.65526
RightShoulder  9.37034 12.4613 51.3795
RightArm  24.986 2.00275 18.9449
RightForeArm  15.5651 2.55037 17.8268
RightHand  0.481134 4.65208 5.25961
LeftUpLeg  -3.83465 5.18775 -1.15406
LeftLeg  -0.131715 4.25724 -3.16669
LeftFoot  1.40251 0.21729 -2.02227
LeftToes  -4.9116e-011 5.71383e-011 -3.31847e-011
7
root  70.344 40.0347 40.5071 -0.194512 -48.0456 2.22938
RightUpLeg  4.31214 -5.46725 -2.76126
RightLeg  1.86459 -14.3668 0.970079
RightFoot  -8.34003 -0.222634 6.32566
RightToes  2.91037e-010 0 -3.6325e-017
Spine  3.71589 0.286041 -0.847861
Spine1  -2.90867 0.54177 -1.70974
HEad  15.5646 2.06954 -4.4116
LeftShoulder1  1.46111 -0.298887 -32.3948
LeftArm  25.6094 5.31489 -35.2674
LeftForeArm  -0.214411 -10.126 -15.9414
LeftHand  0.352806 -1.61383 -5.73196
RightShoulder  9.37564 12.4587 51.4163
RightArm  25.5864 2.00405 19.0671
RightForeArm  14.9983 3.1514 17.7064
RightHand  0.480327 4.61122 5.27446
LeftUpLeg  -3.78416 5.22169 -1.28589
LeftLeg  0.137239 4.12446 -3.214
LeftFoot  1.16439 0.210454 -1.98993
LeftToes  -4.9116e-011 5.71383e-011 -3.31847e-011
8
root  70.344 40.0192 40.5745 -0.404142 -47.8412 2.34283
RightUpLeg  4.30975 -5.56266 -2.94053
RightLeg  2.37454 -14.395 0.832155
RightFoot  -8.66609 -0.208219 6.38561
RightToes  2.91037e-010 0 -3.6325e-017
Spine  3.73446 0.256324 -0.913782
Spine1  -2.82472 0.513183 -1.74439
HEad  15.5355 2.23186 -4.55878
LeftShoulder1  1.4636 -0.298124 -32.4453
LeftArm  25.4184 5.1978 -35.293
LeftForeArm  -0.0808524 -10.0825 -15.9511
LeftHand  0.354162 -1.59565 -5.7132
RightShoulder  9.42796 12.5303 51.4707
RightArm  25.5907 1.92569 19.1609
RightForeArm  14.9177 3.47768 17.5965
RightHand  0.49941 4.67628 5.45539
LeftUpLeg  -3.70244 5.17513 -1.44727
LeftLeg  0.385129 4.00914 -3.20585
LeftFoot  0.937069 0.203565 -1.94573
LeftToes  -4.9116e-011 5.71383e-011 -3.31847e-011
9
root  70.3363 40.0074 40.6371 -0.509609 -47.6473 2.42499
RightUpLeg  4.39739 -5.60227 -3.04609
RightLeg  2.54939 -14.5257 0.7374
RightFoot  -8.92884 -0.196687 6.44957
RightToes  2.91037e-010 0 -3.6325e-017
Spine  3.71055 0.239971 -0.933793
Spine1  -2.78876 0.49802 -1.75855
HEad  15.6834 2.23539 -4.57915
LeftShoulder1  1.45868 -0.287257 -32.4259
LeftArm  25.4795 5.20381 -35.3601
LeftForeArm  -0.222085 -10.3257 -15.8071
LeftHand  0.356023 -1.62389 -5.72304
RightShoulder  9.4236 12.5185 51.4846
RightArm  26.1681 1.83833 19.2998
RightForeArm  14.5111 3.92399 17.4984
RightHand  0.496335 4.66078 5.42943
LeftUpLeg  -3.72217 5.1473 -1.56265
LeftLeg  0.681838 3.8584 -3.21759
LeftFoot  0.675518 0.202909 -1.96714
LeftToes  -4.9116e-011 5.71383e-011 -3.31847e-011
10
root  70.321 39.9989 40.6977 -0.622947 -47.6206 2.53662
RightUpLeg  4.45288 -5.60642 -3.13252
RightLeg  2.72402 -14.5899 0.588867
RightFoot  -9.19582 -0.182986 6.42513
RightToes  2.91037e-010 0 -3.6325e-017
Spine  3.63584 0.309597 -0.857289
Spine1  -2.68286 0.595538 -1.89162
HEad  15.7873 2.35777 -4.65493
LeftShoulder1  1.45334 -0.27543 -32.4049
LeftArm  25.7166 5.17604 -35.3971
LeftForeArm  -0.437869 -10.6584 -15.6126
LeftHand  0.356746 -1.65168 -5.67421
RightShoulder  9.41698 12.479 51.5738
RightArm  26.5082 1.80926 19.3699
RightForeArm  14.2389 4.19765 17.4396
RightHand  0.495637 4.62807 5.49376
LeftUpLeg  -3.64799 5.25105 -1.61162
LeftLeg  0.800157 3.78153 -3.36802
LeftFoot  0.477025 0.201257 -1.96169
LeftToes  -4.9116e-011 5.71383e-011 -3.31847e-011
